<svg width="43" height="37" viewBox="0 0 43 37" fill="none" xmlns="http://www.w3.org/2000/svg">
<path d="M0.287109 0L20.0114 0L20.0114 15.19C20.0114 20.7823 18.8476 25.2108 16.52 28.4755C14.1923 31.71 10.2173 34.5515 4.59471 37L0.287109 28.9289C3.79365 27.2966 6.19683 25.6793 7.49667 24.0772C8.82673 22.4449 9.56734 20.5253 9.71848 18.3186H0.287109L0.287109 0ZM23.2761 0L43.0003 0V15.19C43.0003 20.7823 41.8365 25.2108 39.5089 28.4755C37.1813 31.71 33.2062 34.5515 27.5837 37L23.2761 28.9289C26.7826 27.2966 29.1858 25.6793 30.4856 24.0772C31.8157 22.4449 32.5563 20.5253 32.7075 18.3186H23.2761L23.2761 0Z" fill="currentColor"/>
</svg>
