<svg width="20" height="21" viewBox="0 0 20 21" fill="none" xmlns="http://www.w3.org/2000/svg">
<path d="M14.7166 3.23331C14.2765 3.08364 13.8148 3.00761 13.3499 3.00831H6.68327C5.5782 3.00831 4.51839 3.44729 3.73699 4.22869C2.95559 5.0101 2.5166 6.0699 2.5166 7.17497V11.3416C2.5166 12.4467 2.95559 13.5065 3.73699 14.2879C4.51839 15.0693 5.5782 15.5083 6.68327 15.5083V17.075C6.68328 17.2467 6.72986 17.4152 6.81803 17.5626C6.9062 17.71 7.03268 17.8307 7.184 17.9119C7.33532 17.9932 7.50583 18.0318 7.67739 18.0239C7.84895 18.0159 8.01513 17.9615 8.15827 17.8666L11.0583 15.9333C11.4627 15.6615 11.9377 15.5138 12.4249 15.5083H13.3499C14.455 15.5083 15.5148 15.0693 16.2962 14.2879C17.0776 13.5065 17.5166 12.4467 17.5166 11.3416V7.17497C17.5177 6.30837 17.2487 5.46297 16.7468 4.75648C16.2449 4.04998 15.5353 3.51755 14.7166 3.23331Z" stroke="white" stroke-width="1.66667" stroke-linecap="round" stroke-linejoin="round"/>
<path d="M6.6665 7.58325H13.3248" stroke="white" stroke-width="1.66667" stroke-linecap="round" stroke-linejoin="round"/>
<path d="M6.6665 10.9167H10.8332" stroke="white" stroke-width="1.66667" stroke-linecap="round" stroke-linejoin="round"/>
</svg>
