<svg width="20" height="21" viewBox="0 0 20 21" fill="none" xmlns="http://www.w3.org/2000/svg">
<path d="M4.45833 6.72285L12.3 4.7123C12.5216 4.65638 12.753 4.65188 12.9766 4.69915C13.2002 4.74643 13.4101 4.84422 13.5901 4.98506C13.7702 5.12591 13.9158 5.30608 14.0157 5.51183C14.1156 5.71758 14.1673 5.94347 14.1667 6.17224V13.1466C14.1673 13.3753 14.1156 13.6012 14.0157 13.807C13.9158 14.0127 13.7702 14.1929 13.5901 14.3338C13.4101 14.4746 13.2002 14.5724 12.9766 14.6197C12.753 14.6669 12.5216 14.6624 12.3 14.6065L4.45833 12.596C3.90274 12.4725 3.40585 12.163 3.04978 11.7186C2.6937 11.2741 2.49976 10.7213 2.5 10.1516V9.1672C2.49976 8.59746 2.6937 8.0447 3.04978 7.60025C3.40585 7.15581 3.90274 6.84629 4.45833 6.72285Z" stroke="white" stroke-width="1.66667" stroke-linecap="round" stroke-linejoin="round"/>
<path d="M5 12.9963V14.2477C5 14.8009 5.21949 15.3313 5.61019 15.7225C6.00089 16.1136 6.5308 16.3333 7.08333 16.3333C7.63587 16.3333 8.16577 16.1136 8.55647 15.7225C8.94717 15.3313 9.16667 14.8009 9.16667 14.2477V13.8306" stroke="white" stroke-width="1.66667" stroke-linecap="round" stroke-linejoin="round"/>
<path d="M16.6665 7.44873C17.2055 8.05878 17.503 8.84508 17.503 9.65949C17.503 10.4739 17.2055 11.2602 16.6665 11.8703" stroke="white" stroke-width="1.66667" stroke-linecap="round" stroke-linejoin="round"/>
</svg>
