<svg width="20" height="21" viewBox="0 0 20 21" fill="none" xmlns="http://www.w3.org/2000/svg">
<path d="M8.12557 18H5.05708C4.3789 18 3.7285 17.7314 3.24895 17.2532C2.76941 16.775 2.5 16.1264 2.5 15.4502V12.3904C2.50018 11.9332 2.59144 11.4807 2.76849 11.059C2.94554 10.6373 3.20485 10.2549 3.53136 9.93403L9.58311 3.98441C10.2215 3.35378 11.0839 3 11.9825 3C12.8811 3 13.7435 3.35378 14.3819 3.98441L16.5128 6.10928C17.1452 6.74591 17.5 7.60577 17.5 8.50187C17.5 9.39797 17.1452 10.2578 16.5128 10.8945L10.5463 16.9291C9.91369 17.592 9.04295 17.9772 8.12557 18Z" stroke="white" stroke-width="1.66667" stroke-linecap="round" stroke-linejoin="round"/>
<path d="M7.0835 14.6667C7.77385 14.6667 8.3335 14.1071 8.3335 13.4167C8.3335 12.7264 7.77385 12.1667 7.0835 12.1667C6.39314 12.1667 5.8335 12.7264 5.8335 13.4167C5.8335 14.1071 6.39314 14.6667 7.0835 14.6667Z" stroke="white" stroke-width="1.66667" stroke-linecap="round" stroke-linejoin="round"/>
</svg>
