<svg width="20" height="21" viewBox="0 0 20 21" fill="none" xmlns="http://www.w3.org/2000/svg">
<path d="M10 7.15576C11.8839 6.03834 13.9525 5.26609 16.1083 4.87542C16.2778 4.84215 16.4526 4.84688 16.62 4.88927C16.7875 4.93165 16.9434 5.01064 17.0765 5.12052C17.2097 5.2304 17.3167 5.36844 17.39 5.52467C17.4632 5.6809 17.5008 5.85142 17.5 6.02391V15.1786C17.4993 15.489 17.3828 15.788 17.1733 16.0173C16.9637 16.2465 16.6761 16.3896 16.3667 16.4186C14.2835 16.5855 12.2422 17.0944 10.325 17.925C10.2223 17.9744 10.1098 18 9.99584 18C9.88187 18 9.76936 17.9744 9.66668 17.925C7.75093 17.0858 5.70958 16.5684 3.62501 16.3936C3.31632 16.3645 3.0297 16.2212 2.82151 15.9917C2.61333 15.7622 2.49864 15.4632 2.50001 15.1536V5.99895C2.5029 5.82856 2.54317 5.66088 2.618 5.50773C2.69282 5.35458 2.80037 5.21968 2.93307 5.11255C3.06577 5.00542 3.22038 4.92866 3.38601 4.88769C3.55164 4.84672 3.72425 4.84253 3.89168 4.87542C4.54658 5.00035 5.19465 5.15868 5.83335 5.3498" stroke="white" stroke-width="1.66667" stroke-linecap="round" stroke-linejoin="round"/>
<path d="M10.0002 7.15574C8.98737 5.69172 7.82563 4.33628 6.5335 3.11105C6.4744 3.0563 6.40067 3.01984 6.32124 3.0061C6.24181 2.99237 6.16009 3.00193 6.086 3.03365C6.0119 3.06536 5.94861 3.11786 5.9038 3.18477C5.85898 3.25169 5.83456 3.33016 5.8335 3.41066V12.9814C5.83284 13.237 5.89113 13.4893 6.00385 13.7188C6.11657 13.9483 6.2807 14.1488 6.4835 14.3047C7.83863 15.3392 9.02494 16.5773 10.0002 17.9749" stroke="white" stroke-width="1.66667" stroke-linecap="round" stroke-linejoin="round"/>
<path d="M10 7.15576V17.9" stroke="white" stroke-width="1.66667" stroke-linecap="round" stroke-linejoin="round"/>
</svg>
