<svg width="44" height="60" viewBox="0 0 44 60" fill="none" xmlns="http://www.w3.org/2000/svg">
<ellipse cx="22.5" cy="55.5" rx="9.5" ry="4.5" fill="black" fill-opacity="0.1"/>
<path d="M20.0317 55.5366L20.0977 55.6026L20.1812 55.6443C20.7504 55.9289 21.6497 56.2417 22.3167 56.2417C22.9836 56.2417 23.8829 55.9289 24.4521 55.6443L24.5356 55.6026L24.6016 55.5366C24.6371 55.501 24.7084 55.4328 24.8122 55.3335C25.8462 54.3436 30.1017 50.2697 34.2699 44.7778C38.8373 38.76 43.4 30.9139 43.4 23.4667C43.4 11.3774 34.4748 1.425 22.3167 1.425C10.1517 1.425 1.425 11.3848 1.425 23.4667C1.425 30.9118 5.93771 38.7571 10.4575 44.7755C14.6152 50.3118 18.8602 54.4056 19.8456 55.3559C19.9359 55.4429 19.9988 55.5036 20.0317 55.5366Z" fill="#004D8F"/>
<path d="M20.0317 55.5366L20.0977 55.6026L20.1812 55.6443C20.7504 55.9289 21.6497 56.2417 22.3167 56.2417C22.9836 56.2417 23.8829 55.9289 24.4521 55.6443L24.5356 55.6026L24.6016 55.5366C24.6371 55.501 24.7084 55.4328 24.8122 55.3335C25.8462 54.3436 30.1017 50.2697 34.2699 44.7778C38.8373 38.76 43.4 30.9139 43.4 23.4667C43.4 11.3774 34.4748 1.425 22.3167 1.425C10.1517 1.425 1.425 11.3848 1.425 23.4667C1.425 30.9118 5.93771 38.7571 10.4575 44.7755C14.6152 50.3118 18.8602 54.4056 19.8456 55.3559C19.9359 55.4429 19.9988 55.5036 20.0317 55.5366Z" stroke="#004D8F" stroke-width="1.15"/>
<path d="M20.0317 55.5366L20.0977 55.6026L20.1812 55.6443C20.7504 55.9289 21.6497 56.2417 22.3167 56.2417C22.9836 56.2417 23.8829 55.9289 24.4521 55.6443L24.5356 55.6026L24.6016 55.5366C24.6371 55.501 24.7084 55.4328 24.8122 55.3335C25.8462 54.3436 30.1017 50.2697 34.2699 44.7778C38.8373 38.76 43.4 30.9139 43.4 23.4667C43.4 11.3774 34.4748 1.425 22.3167 1.425C10.1517 1.425 1.425 11.3848 1.425 23.4667C1.425 30.9118 5.93771 38.7571 10.4575 44.7755C14.6152 50.3118 18.8602 54.4056 19.8456 55.3559C19.9359 55.4429 19.9988 55.5036 20.0317 55.5366Z" stroke="black" stroke-opacity="0.2" stroke-width="1.15"/>
<circle cx="22.7004" cy="22.6999" r="13.8" fill="black" fill-opacity="0.1"/>
<path fill-rule="evenodd" clip-rule="evenodd" d="M16.3126 17.6799V27.1533C16.3126 27.1533 16.3008 27.4898 16.533 27.4915C16.7652 27.4932 16.8191 27.3922 16.8309 27.0304C16.8426 26.6687 16.8443 17.9979 16.8443 17.9979L22.3045 15.8711C22.3045 15.8711 23.8341 15.4184 24.3776 15.8997C24.3776 15.8997 24.6434 16.2211 24.2244 16.4331C23.861 16.6165 18.5791 18.634 18.5791 18.634L18.596 27.6412L19.619 27.6513C19.619 27.6513 19.3077 27.1836 19.3784 26.5122C19.4508 25.8408 19.8075 25.6557 20.2096 25.4874C20.8103 25.235 24.9648 23.5978 24.9648 23.5978L24.9614 15.9501C24.9614 15.9501 24.9211 15.3461 23.893 15.2838C22.8615 15.2216 22.5839 15.3696 21.968 15.5951C21.4582 15.7802 16.3126 17.6799 16.3126 17.6799ZM25.229 22.5142L29.2118 26.0663C29.2118 26.0663 21.2748 26.0663 20.9853 26.0713C20.7111 26.0764 20.2988 26.1571 20.2988 26.8571C20.2988 27.5571 20.9281 27.6446 20.9281 27.6446L28.9998 27.6496C29.0991 27.653 29.402 27.6177 29.402 27.9071C29.402 28.146 29.0974 28.1309 28.9965 28.1292C28.9965 28.1292 21.4632 28.1343 20.9736 28.1292C20.4839 28.1242 19.7604 27.7944 19.7604 26.8403C19.7604 25.9434 20.2652 25.7718 20.489 25.6692L25.2694 23.8048L25.2307 22.5125L25.229 22.5142Z" fill="white"/>
</svg>
