<svg xmlns="http://www.w3.org/2000/svg" viewBox="0 0 43 42.25"><defs><style>.cls-1{fill:#fff;fill-rule:evenodd;}</style></defs><g id="Camada_2" data-name="Camada 2"><g id="Camada_1-2" data-name="Camada 1"><path class="cls-1" d="M0,7.92V39s0,1.1.72,1.11.94-.33,1-1.51S1.75,9,1.75,9L19.68,2s5-1.49,6.81.09A1.08,1.08,0,0,1,26,3.82c-1.19.6-18.54,7.23-18.54,7.23l0,29.59,3.36,0a6.14,6.14,0,0,1-.79-3.75,3.65,3.65,0,0,1,2.73-3.36c2-.83,15.62-6.21,15.62-6.21V2.24S28.28.25,24.9.05a11.81,11.81,0,0,0-6.32,1ZM29.29,23.8,42.38,35.47h-27c-.9,0-2.25.29-2.25,2.59a2.47,2.47,0,0,0,2.06,2.58l26.52,0c.33,0,1.32-.11,1.32.85,0,.78-1,.73-1.33.73H15.31a4,4,0,0,1-4-4.24c0-2.95,1.65-3.51,2.39-3.85L29.42,28l-.12-4.25Z"/></g></g></svg>