<svg width="43" height="43" viewBox="0 0 43 43" fill="none" xmlns="http://www.w3.org/2000/svg">
<path fill-rule="evenodd" clip-rule="evenodd" d="M0.000328253 7.91832V39.0391C0.000328253 39.0391 -0.0383654 40.1446 0.724452 40.1501C1.48727 40.1556 1.66415 39.824 1.70285 38.6355C1.74154 37.4471 1.74707 8.96305 1.74707 8.96305L19.6843 1.97608C19.6843 1.97608 24.709 0.489143 26.4944 2.07005C26.4944 2.07005 27.3678 3.12584 25.9914 3.82232C24.7974 4.42484 7.44609 11.0525 7.44609 11.0525L7.50136 40.6421L10.8622 40.6752C10.8622 40.6752 9.83956 39.1385 10.0717 36.933C10.3094 34.7275 11.4813 34.1194 12.8024 33.5667C14.7758 32.7375 28.4236 27.3591 28.4236 27.3591L28.4125 2.23588C28.4125 2.23588 28.2798 0.251453 24.9024 0.0469296C21.514 -0.157594 20.6019 0.32884 18.5788 1.06955C16.9039 1.67759 0.000328253 7.91832 0.000328253 7.91832ZM29.2914 23.7993L42.3754 35.4682C42.3754 35.4682 16.3014 35.4682 15.3506 35.4848C14.4496 35.5013 13.0954 35.7667 13.0954 38.0662C13.0954 40.3657 15.1627 40.6531 15.1627 40.6531L41.6789 40.6697C42.005 40.6808 43 40.5647 43 41.5154C43 42.3004 41.9995 42.2506 41.6678 42.2451C41.6678 42.2451 16.9205 42.2617 15.3119 42.2451C13.7034 42.2285 11.3265 41.1451 11.3265 38.0109C11.3265 35.0647 12.9848 34.5008 13.72 34.1637L29.4241 28.039L29.2969 23.7938L29.2914 23.7993Z" fill="black"/>
</svg>
