<svg viewBox="0 0 473 77" fill="none" xmlns="http://www.w3.org/2000/svg">
<path id="logo-azul-svg" fill-rule="evenodd" clip-rule="evenodd" d="M0.000105557 14.34V70.64C0.000105557 70.64 -0.0698946 72.64 1.31011 72.65C2.69011 72.66 3.01011 72.06 3.08011 69.91C3.15011 67.76 3.16011 16.23 3.16011 16.23L35.6101 3.59C35.6101 3.59 44.7001 0.9 47.9301 3.76C47.9301 3.76 49.5101 5.67 47.0201 6.93C44.8601 8.02 13.4701 20.01 13.4701 20.01L13.5701 73.54L19.6501 73.6C19.6501 73.6 17.8001 70.82 18.2201 66.83C18.6501 62.84 20.7701 61.74 23.1601 60.74C26.7301 59.24 51.4201 49.51 51.4201 49.51L51.4001 4.06C51.4001 4.06 51.1601 0.47 45.0501 0.1C38.9201 -0.27 37.2701 0.61 33.6101 1.95C30.5801 3.05 0.000105557 14.34 0.000105557 14.34ZM52.9901 43.07L76.6601 64.18C76.6601 64.18 29.4901 64.18 27.7701 64.21C26.1401 64.24 23.6901 64.72 23.6901 68.88C23.6901 73.04 27.4301 73.56 27.4301 73.56L75.4001 73.59C75.9901 73.61 77.7901 73.4 77.7901 75.12C77.7901 76.54 75.9801 76.45 75.3801 76.44C75.3801 76.44 30.6101 76.47 27.7001 76.44C24.7901 76.41 20.4901 74.45 20.4901 68.78C20.4901 63.45 23.4901 62.43 24.8201 61.82L53.2301 50.74L53.0001 43.06L52.9901 43.07ZM102.12 0V76.01H123.24V0H102.12ZM196.69 53.72C196.8 48.94 196.8 39.92 192.57 33.12C186 22.5 175.53 19.74 162.5 19.74C138.78 19.74 129.76 34.39 129.76 48.62C129.76 54.46 131.2 62.32 137.89 69C143.35 74.41 149.81 77.28 163.06 77.28C181.99 77.28 189.45 71.65 195.47 61.78L173.64 59.87C171.97 61.78 169.52 64.75 163.62 64.75C153.59 64.75 152.59 55.83 152.37 53.71H196.7L196.69 53.72ZM152.36 43.63C152.92 38.53 155.37 32.27 163.39 32.27C172.97 32.27 173.86 40.55 174.19 43.63H152.36ZM206.13 21.02V76.01H226.59V21.02H206.13ZM206.13 0V14.44H226.59V0H206.13ZM265.82 5.88H244.41V21.02H236.56V34.37H244.41V55.74C244.41 64.23 245.27 69.12 248.18 72.41C251.08 75.81 255.81 76.03 263.55 76.03H277.91V60.65C265.88 60.65 266.01 60.65 265.82 55.84V34.36H277.54V21.01H265.82V5.88ZM349.08 76.01V21.02H326.75V47.45C326.75 51.27 326.75 60.83 317.67 60.83C309.93 60.83 309.81 54.14 309.81 51.28V21.02H287.49V56.05C287.49 65.92 291.08 77.29 307.24 77.29C319.58 77.29 324.85 71.13 327.99 67.09H328.22V76.01H349.09H349.08ZM359.43 21.02V76.01L382.96 75.92V57.45C382.96 42.01 390.92 40.33 403.45 41.88V21.14C386.17 20.14 380.19 32.67 380.19 32.67V20.93L359.43 21.02ZM429.47 38.86C430.71 35.46 432.05 32.28 441.14 32.28C448.77 32.28 448.88 36.1 448.88 39.29C443.49 41.31 441.59 41.94 424.65 45.13C417.02 46.62 406.48 49.27 406.48 61.48C406.48 68.59 411.42 77.3 427.68 77.3C441.37 77.3 446.86 72.2 450.11 69.34C450.56 72.42 450.89 73.26 452.47 76.03H473.44C471.42 72.21 470.64 70.19 470.64 64.35V40.04C470.64 36.33 469.07 29.74 466.04 26.66C461.44 21.78 454.94 19.76 438.23 19.76C419.05 19.76 410.97 24.75 408.17 36.75L429.48 38.87L429.47 38.86ZM448.88 53.3C448.88 65.51 436.77 65.51 435.98 65.51C429.03 65.51 428.8 60.73 428.8 59.88C428.8 55.85 433.4 54.15 436.98 53.19C437.66 53.08 440.91 52.23 441.47 52.13C444.27 51.39 446.96 50.54 448.87 49.9V53.3H448.88Z" fill="#004D8F"/>
</svg>
