<svg width="14" height="18" viewBox="0 0 14 18" fill="none" xmlns="http://www.w3.org/2000/svg">
<path d="M7.00065 0.666748C3.33398 0.666748 0.333984 3.66675 0.333984 7.33341C0.333984 11.8334 6.16732 16.9167 6.41732 17.1667C6.58398 17.2501 6.83398 17.3334 7.00065 17.3334C7.16732 17.3334 7.41732 17.2501 7.58398 17.1667C7.83398 16.9167 13.6673 11.8334 13.6673 7.33341C13.6673 3.66675 10.6673 0.666748 7.00065 0.666748ZM7.00065 15.4167C5.25065 13.7501 2.00065 10.1667 2.00065 7.33341C2.00065 4.58341 4.25065 2.33341 7.00065 2.33341C9.75065 2.33341 12.0007 4.58341 12.0007 7.33341C12.0007 10.0834 8.75065 13.7501 7.00065 15.4167ZM7.00065 4.00008C5.16732 4.00008 3.66732 5.50008 3.66732 7.33341C3.66732 9.16675 5.16732 10.6667 7.00065 10.6667C8.83398 10.6667 10.334 9.16675 10.334 7.33341C10.334 5.50008 8.83398 4.00008 7.00065 4.00008ZM7.00065 9.00008C6.08398 9.00008 5.33398 8.25008 5.33398 7.33341C5.33398 6.41675 6.08398 5.66675 7.00065 5.66675C7.91732 5.66675 8.66732 6.41675 8.66732 7.33341C8.66732 8.25008 7.91732 9.00008 7.00065 9.00008Z" fill="black" fill-opacity="0.4"/>
</svg>
