<?xml version="1.0" encoding="utf-8"?>
<!-- Generator: Adobe Illustrator 27.5.0, SVG Export Plug-In . SVG Version: 6.00 Build 0)  -->
<svg version="1.1" id="Camada_1" xmlns="http://www.w3.org/2000/svg" xmlns:xlink="http://www.w3.org/1999/xlink" x="0px" y="0px"
	 viewBox="0 0 23 24" style="enable-background:new 0 0 23 24;" xml:space="preserve">
<path d="M11.5,1.9c-4.4,0-7.9,3.6-7.9,7.9c0,5.3,6.9,11.4,7.2,11.6c0.2,0.1,0.5,0.2,0.7,0.2s0.5-0.1,0.7-0.2
	c0.2-0.2,7.2-6.3,7.2-11.6C19.4,5.5,15.9,1.9,11.5,1.9z M11.5,19.4c-2.1-2-5.9-6.2-5.9-9.6c0-3.3,2.6-5.9,5.9-5.9s5.9,2.6,5.9,5.9
	S13.6,17.5,11.5,19.4z M11.5,5.9c-2.1,0-3.9,1.8-3.9,3.9s1.8,3.9,3.9,3.9s3.9-1.8,3.9-3.9S13.6,5.9,11.5,5.9z M11.5,11.8
	c-1.1,0-2-0.9-2-2s0.9-2,2-2s2,0.9,2,2C13.5,11,12.6,11.8,11.5,11.8z" fill="#999"/>
</svg>
