<svg width="15" height="16" viewBox="0 0 15 16" fill="none" xmlns="http://www.w3.org/2000/svg">
<path d="M7.50024 1.84106C4.75024 1.84106 2.50024 4.09106 2.50024 6.84106C2.50024 10.2161 6.87524 14.0286 7.06274 14.2161C7.18774 14.2786 7.37524 14.3411 7.50024 14.3411C7.62524 14.3411 7.81274 14.2786 7.93774 14.2161C8.12524 14.0286 12.5002 10.2161 12.5002 6.84106C12.5002 4.09106 10.2502 1.84106 7.50024 1.84106ZM7.50024 12.9036C6.18774 11.6536 3.75024 8.96606 3.75024 6.84106C3.75024 4.77856 5.43774 3.09106 7.50024 3.09106C9.56274 3.09106 11.2502 4.77856 11.2502 6.84106C11.2502 8.90356 8.81274 11.6536 7.50024 12.9036ZM7.50024 4.34106C6.12524 4.34106 5.00024 5.46606 5.00024 6.84106C5.00024 8.21606 6.12524 9.34106 7.50024 9.34106C8.87524 9.34106 10.0002 8.21606 10.0002 6.84106C10.0002 5.46606 8.87524 4.34106 7.50024 4.34106ZM7.50024 8.09106C6.81274 8.09106 6.25024 7.52856 6.25024 6.84106C6.25024 6.15356 6.81274 5.59106 7.50024 5.59106C8.18774 5.59106 8.75024 6.15356 8.75024 6.84106C8.75024 7.52856 8.18774 8.09106 7.50024 8.09106Z" fill="currentColor" fill-opacity="0.6"/>
</svg>
