<svg width="16" height="16" viewBox="0 0 16 16" fill="none" xmlns="http://www.w3.org/2000/svg">
<path d="M7.54557 3.01527C6.15649 3.01527 5.03041 4.14134 5.03041 5.53042C5.03041 6.9195 6.15649 8.04557 7.54557 8.04557C8.93464 8.04557 10.0607 6.9195 10.0607 5.53042C10.0607 4.14134 8.93464 3.01527 7.54557 3.01527ZM3.77284 5.53042C3.77284 3.4468 5.46195 1.75769 7.54557 1.75769C9.62918 1.75769 11.3183 3.4468 11.3183 5.53042C11.3183 7.61404 9.62918 9.30314 7.54557 9.30314C5.46195 9.30314 3.77284 7.61404 3.77284 5.53042ZM5.03041 11.8183C3.9886 11.8183 3.14405 12.6629 3.14405 13.7047C3.14405 14.0519 2.86253 14.3334 2.51526 14.3334C2.16799 14.3334 1.88647 14.0519 1.88647 13.7047C1.88647 11.9683 3.29406 10.5607 5.03041 10.5607H10.0607C11.7971 10.5607 13.2047 11.9683 13.2047 13.7047C13.2047 14.0519 12.9231 14.3334 12.5759 14.3334C12.2286 14.3334 11.9471 14.0519 11.9471 13.7047C11.9471 12.6629 11.1025 11.8183 10.0607 11.8183H5.03041Z" fill="currentColor" fill-opacity="0.6"/>
</svg>
