<svg width="24" height="25" viewBox="0 0 24 25" fill="none" xmlns="http://www.w3.org/2000/svg">
<path d="M4.1421 4.50014L6.00913 16.6358C6.02271 16.736 6.05113 16.8314 6.0921 16.9199C6.21543 17.1862 6.45246 17.3891 6.74088 17.4662C6.82899 17.4899 6.92133 17.5017 7.01578 17.5001H18C18.4416 17.5001 18.8309 17.2105 18.9578 16.7875L21.9578 6.78749C22.0487 6.48471 21.991 6.15682 21.8023 5.90321C21.6136 5.6496 21.3161 5.50014 21 5.50014H6.31948L5.99058 3.36233C5.97826 3.27295 5.95413 3.18733 5.91981 3.10712C5.85751 2.96104 5.76213 2.83451 5.64429 2.73533C5.53497 2.64314 5.40561 2.57396 5.26367 2.53526C5.17434 2.5108 5.0806 2.49855 4.9847 2.50014H3C2.44772 2.50014 2 2.94785 2 3.50014C2 4.05242 2.44772 4.50014 3 4.50014H4.1421ZM7.85794 15.5001L6.62717 7.50014H19.656L17.256 15.5001H7.85794Z" fill="white"/>
<path d="M10 20.5001C10 21.6047 9.10457 22.5001 8 22.5001C6.89543 22.5001 6 21.6047 6 20.5001C6 19.3956 6.89543 18.5001 8 18.5001C9.10457 18.5001 10 19.3956 10 20.5001Z" fill="white"/>
<path d="M19 20.5001C19 21.6047 18.1046 22.5001 17 22.5001C15.8954 22.5001 15 21.6047 15 20.5001C15 19.3956 15.8954 18.5001 17 18.5001C18.1046 18.5001 19 19.3956 19 20.5001Z" fill="white"/>
</svg>
