<svg width="23" height="24" viewBox="0 0 23 24" fill="none" xmlns="http://www.w3.org/2000/svg">
<path d="M18.6875 12V17C18.6875 18.0609 18.2836 19.0783 17.5647 19.8284C16.8459 20.5786 15.8708 21 14.8542 21H8.14583C7.12917 21 6.15415 20.5786 5.43526 19.8284C4.71637 19.0783 4.3125 18.0609 4.3125 17V12" stroke="white" stroke-width="2" stroke-linecap="round" stroke-linejoin="round"/>
<path d="M7.55098 3C6.74662 3.00134 5.96305 3.26666 5.3112 3.75841C4.65936 4.25015 4.17226 4.9434 3.91889 5.74L2.96056 8.6C2.87655 8.86444 2.83447 9.14141 2.83598 9.42C2.8385 10.1034 3.09981 10.7582 3.56294 11.2414C4.02608 11.7247 4.65351 11.9974 5.30848 12C6.09187 12.0018 6.8504 11.7132 7.4489 11.1857C8.0474 10.6583 8.44697 9.92622 8.57639 9.12L9.53473 3H7.55098Z" stroke="white" stroke-width="2" stroke-linecap="round" stroke-linejoin="round"/>
<path d="M15.4476 3.00014C16.2584 2.99304 17.0506 3.25445 17.7101 3.74679C18.3697 4.23913 18.8626 4.93703 19.118 5.74014L20.0763 8.60014C20.1603 8.86458 20.2024 9.14156 20.2009 9.42014C20.1984 10.1036 19.9371 10.7583 19.4739 11.2416C19.0108 11.7248 18.3834 11.9975 17.7284 12.0001C16.9466 11.9995 16.1904 11.7099 15.5939 11.1826C14.9974 10.6554 14.5992 9.92466 14.4701 9.12014L13.5117 3.00014H15.4476Z" stroke="white" stroke-width="2" stroke-linecap="round" stroke-linejoin="round"/>
<path d="M9.58221 3L8.70055 8.55C8.63895 8.97331 8.6649 9.40547 8.77666 9.81745C8.88842 10.2294 9.08339 10.6117 9.34847 10.9385C9.61356 11.2653 9.94261 11.5291 10.3135 11.7122C10.6844 11.8953 11.0886 11.9934 11.4989 12C11.9116 11.9977 12.319 11.9027 12.6934 11.7215C13.0678 11.5402 13.4004 11.277 13.6686 10.9497C13.9368 10.6224 14.1344 10.2386 14.2478 9.82457C14.3612 9.41049 14.3879 8.97579 14.326 8.55L13.4443 3H9.58221Z" stroke="white" stroke-width="2" stroke-linecap="round" stroke-linejoin="round"/>
</svg>
