<svg width="32" height="27" viewBox="0 0 32 27" fill="none" xmlns="http://www.w3.org/2000/svg">
<path d="M0 0H14.3934V11.0846C14.3934 15.1654 13.5441 18.3971 11.8456 20.7794C10.1471 23.1397 7.24632 25.2132 3.14338 27L0 21.1103C2.55882 19.9191 4.3125 18.739 5.26103 17.5699C6.23162 16.3787 6.77206 14.9779 6.88235 13.3676H0V0ZM16.7757 0H31.1691V11.0846C31.1691 15.1654 30.3199 18.3971 28.6213 20.7794C26.9228 23.1397 24.0221 25.2132 19.9191 27L16.7757 21.1103C19.3346 19.9191 21.0882 18.739 22.0368 17.5699C23.0074 16.3787 23.5478 14.9779 23.6581 13.3676H16.7757V0Z" fill="#004D8F"/>
</svg>
