<svg xmlns="http://www.w3.org/2000/svg" viewBox="0 0 292.42 229.26"><defs><style>.cls-1{fill:#e84927;}.cls-2{fill:#19223d;}.cls-3{fill:#fff;}.cls-4{fill:#1e4899;}</style></defs><g id="Camada_2" data-name="Camada 2"><g id="Camada_1-2" data-name="Camada 1"><path class="cls-1" d="M110.37,129.66h0a85.46,85.46,0,0,0,166.94,35.82L292.42,168l-25-42.74-36.07,32.51,15.22,2.55a54.46,54.46,0,0,1-105.6-25.55h0A54.47,54.47,0,0,1,203.4,90l5.11-30.55a85.42,85.42,0,0,0-98.14,70.19"/><path class="cls-2" d="M42.65,186.78c-3.93,23.45-16.4,40.9-27.84,39S-2.74,203.28,1.19,179.83s16.39-40.9,27.84-39,17.54,22.48,13.62,45.93"/><path class="cls-3" d="M26.57,205.82l31.89-15.18,44.86,15,76.31-29-4.56-22.2L226.43,132A14.12,14.12,0,0,0,233,113.87l-1.58-3.69L139.11,138l-47.69-8L20.26,147l-1.44,1.35c-25.18,30.35,7.75,57.46,7.75,57.46"/><path class="cls-2" d="M26.57,207.46a1.62,1.62,0,0,1-1-.37c-.65-.54-15.95-13.32-17.68-31.52-.94-9.86,2.33-19.37,9.7-28.26l.15-.16,1.44-1.34a1.72,1.72,0,0,1,.74-.4l71.16-17a1.78,1.78,0,0,1,.65,0L139,136.28l91.92-27.68a1.64,1.64,0,0,1,2,.93l1.58,3.69a15.82,15.82,0,0,1-7.3,20.23l-.09.05-50.14,22,4.29,20.9a1.65,1.65,0,0,1-1,1.87l-76.3,29a1.69,1.69,0,0,1-1.11,0L58.56,192.41,27.28,207.3a1.6,1.6,0,0,1-.71.16M58.46,189a1.88,1.88,0,0,1,.52.08l44.31,14.85,74.45-28.25-4.28-20.83a1.65,1.65,0,0,1,.95-1.84l51.32-22.51a12.52,12.52,0,0,0,5.73-16l-1-2.34-90.87,27.37a1.74,1.74,0,0,1-.75.05l-47.36-7.94L21.07,148.51l-1.05,1c-6.75,8.16-9.74,16.82-8.9,25.75,1.38,14.58,12.65,25.81,15.73,28.63l30.9-14.71a1.6,1.6,0,0,1,.71-.16"/><path class="cls-2" d="M68.13,171.77l-.6-1.94a76.49,76.49,0,0,0,44.56-36.37l1.78,1a78.52,78.52,0,0,1-45.74,37.34"/><path class="cls-2" d="M67.59,172.8l-1.09-3.51.79-.24a75.69,75.69,0,0,0,44.08-36l.4-.72,3.22,1.77-.4.72a79.34,79.34,0,0,1-46.21,37.73Zm1-2.43.11.37a77.72,77.72,0,0,0,44.08-36l-.34-.19a77.31,77.31,0,0,1-43.85,35.8"/><path class="cls-2" d="M89.62,165.58l5.72,9.59A15.23,15.23,0,0,0,115.12,181L261.06,109.4a9.44,9.44,0,0,0,.35-16.76L246,84.27a9.43,9.43,0,0,0-8.62-.21L93.17,153.73a8.39,8.39,0,0,0-3.55,11.85"/><polygon class="cls-3" points="93.8 156.6 240.3 85.61 259.3 96.61 103.29 172.52 93.8 156.6"/><path class="cls-3" d="M107.07,183l12.69-3.89,1-12.22a24.56,24.56,0,0,1,13.43-20l10.17,41.65"/><path class="cls-2" d="M142.76,189l-9.67-39.55a23.07,23.07,0,0,0-10.7,17.6l-1,12.22a1.64,1.64,0,0,1-1.16,1.44l-12.68,3.89a1.64,1.64,0,1,1-1-3.14l11.62-3.56.9-11.11a26.36,26.36,0,0,1,14.33-21.3,1.63,1.63,0,0,1,1.43,0,1.67,1.67,0,0,1,.91,1.11L146,188.18Z"/><path class="cls-3" d="M212.89,134,190.74,169.1l-26.28-3.59,24.75-27.28A24.54,24.54,0,0,1,212.89,134"/><path class="cls-2" d="M190.74,170.75l-.22,0-26.28-3.59a1.65,1.65,0,0,1-1-2.74L188,137.12l.18-.16a26.37,26.37,0,0,1,25.26-4.56,1.65,1.65,0,0,1,.85,2.44L192.13,170a1.64,1.64,0,0,1-1.39.77m-23-6.45,22.13,3,20.43-32.41a23.08,23.08,0,0,0-20,4.5Z"/><path class="cls-3" d="M112,135l9.11-9.44,10.61-.48a14.19,14.19,0,0,0,16.63,10.24l2.81-.59L150,107.84l-47.92-8-43,39.49"/><path class="cls-2" d="M59.11,141a1.61,1.61,0,0,1-1.21-.53,1.64,1.64,0,0,1,.1-2.32l43-39.5a1.68,1.68,0,0,1,1.39-.41l47.92,8a1.64,1.64,0,0,1,1.37,1.55l1.14,26.9a1.64,1.64,0,0,1-1.31,1.67l-2.82.59a15.85,15.85,0,0,1-18.15-10.15l-8.69.4-8.66,9a1.65,1.65,0,0,1-2.37-2.29l9.12-9.44a1.66,1.66,0,0,1,1.11-.5l10.61-.48a1.63,1.63,0,0,1,1.66,1.22,12.55,12.55,0,0,0,14.7,9.05l1.45-.3-1-24.17-45.81-7.67-42.41,39a1.62,1.62,0,0,1-1.11.43"/><rect class="cls-4" x="187.44" y="33.62" width="11.33" height="2.03" transform="translate(127.06 219.38) rotate(-80.5)"/><rect class="cls-4" x="192.09" y="28.97" width="2.03" height="11.33" transform="matrix(0.17, -0.99, 0.99, 0.17, 127.06, 219.38)"/><rect class="cls-4" x="204.53" y="189.77" width="24.12" height="2.03" transform="translate(-7.35 372.89) rotate(-80.49)"/><rect class="cls-4" x="215.58" y="178.72" width="2.03" height="24.13" transform="matrix(0.17, -0.99, 0.99, 0.17, -7.33, 372.9)"/><path class="cls-3" d="M175.81,101.11c-10.39-6.54-10.21-22.2.41-35s27.66-17.85,38.05-11.32,10.21,22.2-.41,35-27.65,17.86-38.05,11.32"/><path class="cls-2" d="M217.67,57.66,223.39,64c6.78,7.55,5.48,20.94-3.81,32.13C209,108.94,191.92,114,181.52,107.47l-5.71-6.36c10.4,6.54,27.43,1.47,38.05-11.32,9.3-11.19,10.6-24.58,3.81-32.13"/><path class="cls-2" d="M185.88,97.51a14.44,14.44,0,0,1-5.28-2,12.74,12.74,0,0,1-5.82-9c-.9-5.69,1.24-12.16,5.88-17.75,8-9.61,20.9-13.37,28.82-8.4a12.74,12.74,0,0,1,5.82,9c.91,5.69-1.24,12.16-5.88,17.75-6.38,7.69-15.93,11.63-23.54,10.36m-4.2-3.68c7.09,4.45,18.83.87,26.18-8,4.21-5.07,6.24-11.1,5.43-16.14a10.7,10.7,0,0,0-4.89-7.64c-7.09-4.45-18.83-.87-26.18,8-4.2,5.07-6.24,11.1-5.43,16.14A10.73,10.73,0,0,0,181.68,93.83Z"/><path class="cls-3" d="M224.54,5.2c8.32-9,23.69-6,34.33,6.77s12.53,30.44,4.22,39.47-23.69,6-34.33-6.76S216.23,14.24,224.54,5.2"/><path class="cls-2" d="M259.66,54.27l-7.29,4.46c-8.66,5.3-21.59,1.58-30.91-9.59-10.64-12.77-12.53-30.44-4.21-39.47l7.29-4.47c-8.31,9-6.43,26.71,4.22,39.48,9.31,11.17,22.24,14.89,30.9,9.59"/><path class="cls-2" d="M246.22,49.57c-5-.84-10-4-14.06-8.78-8-9.59-9.35-23-3-29.86a12.68,12.68,0,0,1,10-4.08c5.76.14,11.73,3.42,16.39,9,8,9.59,9.34,23,3,29.86a12.71,12.71,0,0,1-10,4.08,16.57,16.57,0,0,1-2.32-.23M230.64,12.3h0c-5.67,6.16-4.29,18.36,3.08,27.19,4.21,5.06,9.77,8.14,14.87,8.28A10.72,10.72,0,0,0,257,44.34c5.66-6.15,4.28-18.35-3.08-27.18C249.7,12.1,244.14,9,239,8.88a10.69,10.69,0,0,0-8.4,3.42"/><path class="cls-3" d="M142.05,175.63l16.1-4.94,1-12.22a24.56,24.56,0,0,1,13.44-20l10.29,39.4"/><path class="cls-2" d="M181.26,178.33,171.51,141a23.1,23.1,0,0,0-10.74,17.61l-1,12.22a1.64,1.64,0,0,1-1.16,1.44l-16.09,4.94-1-3.14,15-4.61.9-11.11A26.37,26.37,0,0,1,171.83,137a1.65,1.65,0,0,1,2.33,1.05l10.29,39.41Z"/><polygon class="cls-2" points="159.32 183.45 181.85 174.86 182.53 177.13 160.1 185.12 159.32 183.45"/><path class="cls-2" d="M159.68,186.15,158.2,183l24.18-9.21,1.17,3.86Zm.76-2.25.09.2,21-7.48-.2-.67Z"/></g></g></svg>