<svg xmlns="http://www.w3.org/2000/svg" viewBox="0 0 100.49 98.74"><defs><style>.cls-1{fill:#e74928;}</style></defs><g id="Camada_2" data-name="Camada 2"><g id="Camada_1-2" data-name="Camada 1"><path class="cls-1" d="M45.49,46.74,49.8,49.8l-3.06-4.31a35.55,35.55,0,0,1,0-41.18L49.8,0,45.49,3.06a35.55,35.55,0,0,1-41.18,0L0,0,3.06,4.31a35.55,35.55,0,0,1,0,41.18L0,49.8l4.31-3.06a35.55,35.55,0,0,1,41.18,0"/><polygon class="cls-1" points="78.25 76.05 100.49 72.21 78.25 68.38 74.49 45.69 70.73 68.38 48.49 72.21 70.73 76.05 74.49 98.73 78.25 76.05"/></g></g></svg>