<svg width="18" height="19" viewBox="0 0 18 19" fill="none" xmlns="http://www.w3.org/2000/svg">
<path d="M3 5.56399C3.10489 5.52159 3.231 5.47475 3.37716 5.42751C3.8941 5.26042 4.65976 5.08887 5.625 5.08887C6.59024 5.08887 7.3559 5.26042 7.87284 5.42751C8.019 5.47475 8.1451 5.52159 8.25 5.56399V13.7235C7.61159 13.5253 6.72012 13.3389 5.625 13.3389C4.52988 13.3389 3.63841 13.5253 3 13.7235V5.56399ZM9 4.25283C8.83071 4.17776 8.6074 4.08853 8.33419 4.00022C7.69097 3.79231 6.76913 3.58887 5.625 3.58887C4.48087 3.58887 3.55903 3.79231 2.91581 4.00022C2.59422 4.10417 2.34176 4.20939 2.16517 4.29129C2.07683 4.33226 2.00734 4.36745 1.95751 4.39384C1.9326 4.40703 1.91258 4.41803 1.89758 4.42646L1.87883 4.43712L1.87229 4.44092L1.86973 4.44242L1.86863 4.44307C1.86715 4.44394 1.68383 4.55258 1.86765 4.44365C1.63975 4.5787 1.5 4.82396 1.5 5.08887V14.8389C1.5 15.1083 1.64456 15.3571 1.87869 15.4905C2.11267 15.6238 2.40016 15.6215 2.63191 15.4844C2.62986 15.4855 2.62858 15.4863 2.62858 15.4863L2.62956 15.4857L2.63073 15.485L2.63191 15.4844C2.63647 15.4818 2.64568 15.4768 2.65949 15.4694C2.68712 15.4548 2.73298 15.4314 2.79626 15.4021C2.92289 15.3433 3.11867 15.2611 3.37716 15.1775C3.8941 15.0104 4.65976 14.8389 5.625 14.8389C6.59024 14.8389 7.3559 15.0104 7.87284 15.1775C8.13133 15.2611 8.32711 15.3433 8.45374 15.4021C8.51702 15.4314 8.56288 15.4548 8.59051 15.4694C8.60432 15.4768 8.61356 15.4819 8.61812 15.4844C8.62018 15.4856 8.62142 15.4863 8.62142 15.4863M8.62142 15.4863L8.62044 15.4857L8.61927 15.485L8.61812 15.4844C8.85358 15.6235 9.14652 15.6236 9.38191 15.4844C9.38647 15.4818 9.39568 15.4768 9.40949 15.4694C9.43712 15.4548 9.48298 15.4314 9.54626 15.4021C9.67289 15.3433 9.86867 15.2611 10.1272 15.1775C10.6441 15.0104 11.4098 14.8389 12.375 14.8389C13.3402 14.8389 14.1059 15.0104 14.6228 15.1775C14.8813 15.2611 15.0771 15.3433 15.2037 15.4021C15.267 15.4314 15.3129 15.4548 15.3405 15.4694C15.3543 15.4768 15.3636 15.4819 15.3681 15.4844L15.3689 15.4848C15.6005 15.6215 15.8876 15.6237 16.1213 15.4905C16.3554 15.3571 16.5 15.1083 16.5 14.8389V5.08887C16.5 4.82396 16.3603 4.5787 16.1324 4.44365L16.1314 4.44307L16.1303 4.44242L16.1277 4.44092L16.1212 4.43712L16.1024 4.42646C16.0874 4.41803 16.0674 4.40703 16.0425 4.39384C15.9927 4.36745 15.9232 4.33226 15.8348 4.29129C15.6582 4.20939 15.4058 4.10417 15.0842 4.00022C14.441 3.79231 13.5191 3.58887 12.375 3.58887C11.2309 3.58887 10.309 3.79231 9.66581 4.00022C9.3926 4.08853 9.16929 4.17776 9 4.25283M15 5.56399V13.7235C14.3616 13.5253 13.4701 13.3389 12.375 13.3389C11.2799 13.3389 10.3884 13.5253 9.75 13.7235V5.56399C9.85489 5.52159 9.981 5.47475 10.1272 5.42751C10.6441 5.26042 11.4098 5.08887 12.375 5.08887C13.3402 5.08887 14.1059 5.26042 14.6228 5.42751C14.769 5.47475 14.8951 5.52159 15 5.56399ZM15.3681 5.73443C15.3702 5.73558 15.3714 5.7363 15.3714 5.7363L15.3704 5.73573L15.3681 5.73443ZM15.3681 15.4844L15.3706 15.4858L15.3689 15.4848" fill="black" fill-opacity="0.4"/>
</svg>
