<svg width="18" height="19" viewBox="0 0 18 19" fill="none" xmlns="http://www.w3.org/2000/svg">
<path d="M9 3.58887C7.34315 3.58887 6 4.93201 6 6.58887C6 8.24572 7.34315 9.58887 9 9.58887C10.6569 9.58887 12 8.24572 12 6.58887C12 4.93201 10.6569 3.58887 9 3.58887ZM4.5 6.58887C4.5 4.10359 6.51472 2.08887 9 2.08887C11.4853 2.08887 13.5 4.10359 13.5 6.58887C13.5 9.07415 11.4853 11.0889 9 11.0889C6.51472 11.0889 4.5 9.07415 4.5 6.58887ZM6 14.0889C4.75736 14.0889 3.75 15.0962 3.75 16.3389C3.75 16.7531 3.41421 17.0889 3 17.0889C2.58579 17.0889 2.25 16.7531 2.25 16.3389C2.25 14.2678 3.92893 12.5889 6 12.5889H12C14.0711 12.5889 15.75 14.2678 15.75 16.3389C15.75 16.7531 15.4142 17.0889 15 17.0889C14.5858 17.0889 14.25 16.7531 14.25 16.3389C14.25 15.0962 13.2426 14.0889 12 14.0889H6Z" fill="black" fill-opacity="0.4"/>
</svg>
