<svg xmlns="http://www.w3.org/2000/svg" xmlns:xlink="http://www.w3.org/1999/xlink" viewBox="0 0 283.51 4609.63"><defs><style>.cls-1,.cls-2,.cls-3{fill:none;}.cls-2{stroke:#e74928;}.cls-2,.cls-3{stroke-miterlimit:10;stroke-width:4px;}.cls-3{stroke:#19223d;}.cls-4{fill:#f29a7c;}.cls-5{fill:#18223c;}.cls-6{fill:#e74928;}.cls-7{fill:#204896;}.cls-8{fill:#3860a9;}.cls-9{fill:#1e4899;}.cls-10{fill:#17223b;}.cls-11{fill:#e74929;}.cls-12{fill:#f0ecd8;}.cls-13{fill:url(#cashback_leitura);}.cls-14{fill:url(#linhas_cashback_leitura);}</style><pattern id="cashback_leitura" data-name="cashback_leitura" width="210" height="120" patternTransform="translate(-3792.11 5524.45)" patternUnits="userSpaceOnUse" viewBox="0 0 210 120"><rect class="cls-1" width="210" height="120"/><path class="cls-2" d="M11.72,98.27l-2.23,1.78a5.12,5.12,0,0,0,1.36,8.8l25.53,9.78a5.13,5.13,0,0,0,7-5l-1-27.57a5.13,5.13,0,0,0-8.25-3.88l-.92.7a1.05,1.05,0,0,1-1.29,0A53.06,53.06,0,0,0-2.56,73.29a24.89,24.89,0,0,0-10.17,3.13,128.29,128.29,0,0,0-17.1,11.46A.84.84,0,0,0-29,89.33c7.38-2.52,22-4.69,40.7,7.57a.85.85,0,0,1,.06,1.37"/><path class="cls-3" d="M-3,94.7c-3.73-1.69-19.79-7.89-33.17,3a14.13,14.13,0,0,0-4.13,5.78c-2.59,6.56-6.71,22,3.54,40.14,0,.28,12.34,26.34,47.87,22.91.42.11,15.11-1.7,26.26-11.68a12,12,0,1,0-16.15-17.8c-6.11,5.42-16.63,10.61-30.68,2,0,0-15.91-9.73-8.38-32.64h0c.06-.07,3.45-11.49,14.73-11.42A.18.18,0,0,0-3,94.7"/><path class="cls-2" d="M221.72,98.27l-2.23,1.78a5.12,5.12,0,0,0,1.36,8.8l25.53,9.78a5.13,5.13,0,0,0,7-5l-1-27.57a5.13,5.13,0,0,0-8.25-3.88l-.92.7a1.05,1.05,0,0,1-1.29,0,53.06,53.06,0,0,0-34.44-9.64,24.89,24.89,0,0,0-10.17,3.13,128.29,128.29,0,0,0-17.1,11.46.84.84,0,0,0,.79,1.45c7.38-2.52,22-4.69,40.7,7.57a.85.85,0,0,1,.06,1.37"/><path class="cls-3" d="M207,94.7c-3.73-1.69-19.79-7.89-33.17,3a14.13,14.13,0,0,0-4.13,5.78c-2.59,6.56-6.71,22,3.54,40.14,0,.28,12.34,26.34,47.87,22.91.42.11,15.11-1.7,26.26-11.68a12,12,0,1,0-16.15-17.8c-6.11,5.42-16.63,10.61-30.68,2,0,0-15.91-9.73-8.38-32.64h0c.06-.07,3.45-11.49,14.73-11.42a.18.18,0,0,0,.1-.35"/><path class="cls-2" d="M11.72-21.73,9.49-19.95a5.12,5.12,0,0,0,1.36,8.8L36.38-1.37a5.13,5.13,0,0,0,7-5l-1-27.57a5.13,5.13,0,0,0-8.25-3.88l-.92.7a1.05,1.05,0,0,1-1.29,0A53.06,53.06,0,0,0-2.56-46.71a24.89,24.89,0,0,0-10.17,3.13,128.29,128.29,0,0,0-17.1,11.46A.84.84,0,0,0-29-30.67c7.38-2.52,22-4.69,40.7,7.57a.85.85,0,0,1,.06,1.37"/><path class="cls-3" d="M-3-25.3c-3.73-1.69-19.79-7.89-33.17,3A14.13,14.13,0,0,0-40.3-16.5c-2.59,6.56-6.71,22,3.54,40.14,0,.28,12.34,26.34,47.87,22.91.42.11,15.11-1.7,26.26-11.68a12,12,0,1,0-16.15-17.8c-6.11,5.42-16.63,10.61-30.68,2,0,0-15.91-9.73-8.38-32.64h0C-17.77-13.6-14.38-25-3.1-24.95A.18.18,0,0,0-3-25.3"/><path class="cls-2" d="M116.72,38.27l-2.23,1.78a5.12,5.12,0,0,0,1.36,8.8l25.53,9.78a5.13,5.13,0,0,0,7-5l-1-27.57a5.13,5.13,0,0,0-8.25-3.88l-.92.7a1.05,1.05,0,0,1-1.29,0,53.06,53.06,0,0,0-34.44-9.64,24.89,24.89,0,0,0-10.17,3.13,128.29,128.29,0,0,0-17.1,11.46A.84.84,0,0,0,76,29.33c7.38-2.52,22-4.69,40.7,7.57a.85.85,0,0,1,.06,1.37"/><path class="cls-3" d="M102,34.7c-3.73-1.69-19.79-7.89-33.17,3A14.13,14.13,0,0,0,64.7,43.5c-2.59,6.56-6.71,22,3.54,40.14,0,.28,12.34,26.34,47.87,22.91.42.11,15.11-1.7,26.26-11.68a12,12,0,1,0-16.15-17.8c-6.11,5.42-16.63,10.61-30.68,2,0,0-15.91-9.73-8.38-32.64h0c.06-.07,3.45-11.49,14.73-11.42a.18.18,0,0,0,.1-.35"/><path class="cls-2" d="M221.72-21.73l-2.23,1.78a5.12,5.12,0,0,0,1.36,8.8l25.53,9.78a5.13,5.13,0,0,0,7-5l-1-27.57a5.13,5.13,0,0,0-8.25-3.88l-.92.7a1.05,1.05,0,0,1-1.29,0,53.06,53.06,0,0,0-34.44-9.64,24.89,24.89,0,0,0-10.17,3.13,128.29,128.29,0,0,0-17.1,11.46.84.84,0,0,0,.79,1.45c7.38-2.52,22-4.69,40.7,7.57a.85.85,0,0,1,.06,1.37"/><path class="cls-3" d="M207-25.3c-3.73-1.69-19.79-7.89-33.17,3a14.13,14.13,0,0,0-4.13,5.78c-2.59,6.56-6.71,22,3.54,40.14,0,.28,12.34,26.34,47.87,22.91.42.11,15.11-1.7,26.26-11.68a12,12,0,1,0-16.15-17.8c-6.11,5.42-16.63,10.61-30.68,2,0,0-15.91-9.73-8.38-32.64h0c.06-.07,3.45-11.49,14.73-11.42a.18.18,0,0,0,.1-.35"/></pattern><pattern id="linhas_cashback_leitura" data-name="linhas cashback leitura" width="44.63" height="42.99" patternTransform="translate(-3792.11 5524.45)" patternUnits="userSpaceOnUse" viewBox="0 0 44.63 42.99"><rect class="cls-1" width="44.63" height="42.99"/><rect class="cls-4" x="21.49" width="1.64" height="42.99"/><rect class="cls-4" y="20.67" width="44.63" height="1.64"/></pattern></defs><g id="Camada_2" data-name="Camada 2"><g id="Camada_1-2" data-name="Camada 1"><rect class="cls-5" x="0.33" y="690.77" width="283.18" height="283.18"/><rect class="cls-5" x="0.33" y="2669.46" width="283.18" height="950.77"/><rect class="cls-6" x="0.33" y="2386.28" width="283.18" height="283.18"/><rect class="cls-7" x="0.33" y="973.95" width="283.18" height="283.18"/><rect class="cls-8" y="1800.78" width="283.18" height="585.5"/><rect class="cls-7" x="0.33" width="283.18" height="690.77"/><rect class="cls-9" y="3903.41" width="283.18" height="706.23"/><rect class="cls-8" x="0.33" y="3620.23" width="283.18" height="283.18"/><path class="cls-10" d="M226.08,4463.88q0,33.87-18.83,53.91t-50.8,20.05q-31.42,0-50.79-20.18t-19.38-53a75.11,75.11,0,0,1,7.56-33.83,17.79,17.79,0,0,1,28-5.31l.54.5a16.92,16.92,0,0,1,3.57,19.84,38.59,38.59,0,0,0-3.59,16.63q0,14.64,9.34,23.85t24.52,9.21q15.18,0,24.52-9.08t9.35-24a38.86,38.86,0,0,0-4.27-18.21,16.77,16.77,0,0,1,3.19-20l.57-.54c8.34-7.9,22.08-6,27.61,4.07a73.5,73.5,0,0,1,8.93,36"/><path class="cls-10" d="M108,4260.52h96.08c10.65,0,19.27,8.38,19.27,18.71v1.41a18.89,18.89,0,0,1-16.05,18.46q18.78,16.63,18.77,43.33,0,18.24-8.84,32.37a60,60,0,0,1-24.75,22.06q-15.9,7.94-36.3,7.93t-36.31-7.93a60,60,0,0,1-24.75-22.06q-8.84-14.13-8.84-32.37a61.08,61.08,0,0,1,4.76-24.31,52.9,52.9,0,0,1,13.73-19A18.63,18.63,0,0,1,89,4280.9V4279c0-10.2,8.51-18.46,19-18.46m72.79,49.67q-9.39-8.71-24.61-8.72t-24.62,8.72q-9.37,8.73-9.38,22.46t9.52,22.33q9.53,8.6,24.48,8.59t24.47-8.59q9.53-8.58,9.52-22.33t-9.38-22.46"/><path class="cls-10" d="M103.44,3989q-16.51,14.55-16.53,39.1a63.36,63.36,0,0,0,9.42,33.46,33.56,33.56,0,0,0,4.79,5.91H54.88a21.16,21.16,0,0,0,0,42.31H204.45a21.17,21.17,0,1,0,0-42.32H154.71q-13.78,0-22.48-7.42t-8.67-19.55q0-11.05,7.44-17.39t20.68-6.34h52.77a21.17,21.17,0,1,0,0-42.33H149.19q-29.2,0-45.75,14.57"/><path class="cls-11" d="M151.62,4139.29q-11,15.36-13.17,44.7-1.09,10.24-3.3,14.53c-1.45,2.86-3.55,4.3-6.29,4.3q-9.87,0-9.88-21a79.54,79.54,0,0,1,4.65-28c2.05-5.46-.55-11.57-5.55-14.5,0,0-11.87-5.41-17.25-4.13-8.08,1.93-10,8.28-12.56,18-.93,3.51-1.63,7.11-2.22,10.75h-2.5a21.27,21.27,0,0,0,0,42.54h3.28a60.62,60.62,0,0,0,9.54,22.12q11.92,16.62,32.2,16.62,18.68,0,30.17-15.37t12.89-41.37q.81-11.62,3.28-16.62c1.65-3.31,4.11-5,7.41-5q9.6,0,9.6,18a106.57,106.57,0,0,1-3.31,26.15c-2.18,8.76-7.34,16.69-5.51,22.65,1.61,5.26,15.29,11.15,15.29,11.15,5.86,3.29,13.61,1.47,16.7-4.54a107.3,107.3,0,0,0,10.57-33.81h2.52a21.27,21.27,0,0,0,0-42.54h-3.52c-1.95-9-5.12-16.76-9.58-23.07q-11.93-16.89-32.76-16.89-19.74,0-30.7,15.36"/><path class="cls-7" d="M195.49,903.33l-20,12.26c-23.8,14.56-59.33,4.36-84.93-26.35C61.27,854.15,56.09,805.58,79,780.76l20-12.27C76.13,793.32,81.32,841.88,110.57,877c25.59,30.7,61.13,40.91,84.92,26.35"/><path class="cls-12" d="M99,768.49c22.85-24.82,65.08-16.49,94.33,18.59s34.44,83.66,11.59,108.48S139.82,912.07,110.57,877,76.13,793.32,99,768.49"/><path class="cls-7" d="M158.55,890.43c-13.78-2.31-27.57-10.86-38.64-24.14-22-26.35-25.69-63.16-8.28-82.06,7-7.61,16.45-11.48,27.33-11.22,15.82.39,32.24,9.42,45,24.76,22,26.35,25.68,63.16,8.28,82.06-7,7.6-16.45,11.48-27.33,11.21a46,46,0,0,1-6.39-.61M115.73,788h0c-15.58,16.92-11.78,50.43,8.46,74.71,11.58,13.9,26.87,22.38,40.88,22.75,9.23.23,17.22-3,23.1-9.42,15.57-16.91,11.77-50.43-8.47-74.71-11.59-13.9-26.87-22.39-40.88-22.75-9.22-.22-17.21,3-23.09,9.42"/><path class="cls-12" d="M81.45,2582.76c-28.57-18-28.06-61,1.12-96.15s76-49.07,104.57-31.11,28.07,61-1.12,96.14-76,49.08-104.57,31.12"/><path class="cls-5" d="M196.49,2463.34l15.7,17.48c18.64,20.75,15.07,57.56-10.47,88.31-29.19,35.15-76,49.07-104.57,31.11l-15.7-17.48c28.57,18,75.38,4,104.57-31.12,25.54-30.74,29.12-67.55,10.47-88.3"/><path class="cls-5" d="M109.11,2572.86a39.18,39.18,0,0,1-14.49-5.39h0c-8.75-5.5-14.28-14.09-16-24.83-2.49-15.64,3.4-33.42,16.16-48.79,21.92-26.39,57.44-36.74,79.19-23.06,8.75,5.5,14.28,14.09,16,24.83,2.5,15.64-3.39,33.42-16.15,48.79-17.53,21.11-43.77,32-64.7,28.45m-11.52-10.11c19.48,12.24,51.74,2.41,71.93-21.91,11.56-13.92,17.15-30.49,14.94-44.34-1.46-9.11-6.11-16.37-13.46-21-19.46-12.25-51.74-2.41-71.93,21.91-11.56,13.92-17.14,30.5-14.94,44.34C85.59,2550.87,90.24,2558.12,97.59,2562.75Z"/><path class="cls-7" d="M195.38,2021.71l-20,12.26c-23.8,14.55-59.34,4.35-84.93-26.36C61.16,1972.52,56,1924,78.83,1899.13l20-12.26c-22.85,24.82-17.67,73.39,11.59,108.48,25.59,30.71,61.13,40.91,84.92,26.36"/><path class="cls-12" d="M98.87,1886.87c22.86-24.83,65.09-16.5,94.34,18.59s34.44,83.65,11.59,108.48-65.09,16.51-94.34-18.59S76,1911.69,98.87,1886.87"/><path class="cls-7" d="M158.43,2008.8c-13.78-2.31-27.56-10.86-38.63-24.14-22-26.35-25.69-63.16-8.29-82.06,7-7.6,16.46-11.48,27.33-11.21,15.83.39,32.25,9.41,45,24.75,22,26.36,25.68,63.17,8.29,82.07-7,7.6-16.45,11.48-27.33,11.21a44.86,44.86,0,0,1-6.4-.62m-42.81-102.42h0c-15.58,16.92-11.78,50.44,8.46,74.71,11.58,13.9,26.87,22.38,40.88,22.76,9.23.22,17.22-3,23.09-9.43,15.58-16.91,11.78-50.42-8.46-74.7-11.59-13.9-26.87-22.39-40.88-22.76-9.23-.22-17.21,3-23.09,9.42"/><path class="cls-12" d="M81.11,2289.94c-28.56-18-28.06-61,1.13-96.15s76-49.08,104.57-31.11,28.07,61-1.13,96.14-76,49.08-104.57,31.12"/><path class="cls-5" d="M196.16,2170.52l15.7,17.48c18.64,20.75,15.07,57.56-10.47,88.31-29.19,35.14-76,49.07-104.57,31.11l-15.71-17.48c28.57,18,75.39,4,104.58-31.12,25.53-30.74,29.11-67.55,10.47-88.3"/><path class="cls-5" d="M108.78,2280a39.18,39.18,0,0,1-14.49-5.39h0c-8.75-5.51-14.28-14.09-16-24.83-2.49-15.64,3.4-33.42,16.15-48.79,21.92-26.39,57.45-36.74,79.19-23.06,8.75,5.5,14.29,14.09,16,24.83,2.5,15.64-3.39,33.42-16.15,48.79-17.53,21.11-43.78,31.95-64.7,28.45m-11.52-10.11c19.47,12.24,51.74,2.41,71.92-21.91,11.57-13.92,17.15-30.5,14.94-44.34-1.45-9.11-6.1-16.37-13.46-21-19.46-12.25-51.73-2.41-71.93,21.9-11.55,13.93-17.14,30.5-14.93,44.35C85.25,2258.05,89.91,2265.3,97.26,2269.93Z"/><rect class="cls-13" x="0.33" width="283.18" height="690.77"/><rect class="cls-6" x="0.33" y="1256.57" width="283.18" height="566.36"/><rect class="cls-14" x="0.33" y="1256.57" width="283.18" height="566.36"/><path class="cls-6" d="M107.93,3024h99.82c18.27,0,22.16,27.7,11,33.56-3.35,1.76-18.57,1.32-18.57,1.32a33.64,33.64,0,0,1,16.16,13.22,63.07,63.07,0,0,1,9.44,33.38q0,24.49-16.57,39T163.32,3159H107.93c-12,0-21.69-9.45-21.69-21.11s9.71-21.1,21.69-21.1h52.89c8.86,0,15.76-2.13,20.73-6.33s7.47-10,7.47-17.35q0-12.09-8.71-19.51t-22.52-7.39H107.93c-12,0-21.69-9.45-21.69-21.11S96,3024,107.93,3024"/><path class="cls-6" d="M88.1,3384.91a57.8,57.8,0,0,1,17.31-28.77q12.74-11.51,32.15-15.81c1.91-.43,4-.8,6.34-1.13a10.25,10.25,0,0,1,11.43,7.92l17.82,80.28a4.58,4.58,0,0,0,7.37,2.53,26.16,26.16,0,0,0,7.75-10.78q4.2-10.29,1.1-24.21a64.67,64.67,0,0,0-7.08-18.27,52.9,52.9,0,0,0-6.8-9.38,8.48,8.48,0,0,1-.74-10.52l9.1-13.25a8.44,8.44,0,0,1,12.57-1.57,80.93,80.93,0,0,1,14.1,16.75,95.28,95.28,0,0,1,12.65,30.93q5,22.6.42,41a61.1,61.1,0,0,1-17.83,30.68q-13.24,12.32-34,16.92-19.94,4.42-37.4-.93A62.63,62.63,0,0,1,104.89,3458q-12-13.85-16.62-34.6-4.72-21.26-.17-38.53m43.18,48.69a24.11,24.11,0,0,0,15.48,5.16,3.29,3.29,0,0,0,3.23-4l-11.07-49.87a3.3,3.3,0,0,0-4.55-2.29,23.48,23.48,0,0,0-12,10.83c-3.08,5.91-3.71,13.08-1.84,21.48q2.74,12.35,10.76,18.69"/><path class="cls-6" d="M90.34,2908c2.31-6.08,5.92-11.12,12-12.74,7.72-2,26.47,6.27,26.55,14.38,0,4.44-1.07,7.51-2.16,10.75a31.4,31.4,0,0,0-1.63,10.22q0,13.42,8.79,21.23t25.84,7.81h44.4a21.12,21.12,0,1,1,0,42.22H111.52c-11.92,0-20.82-9.37-21.58-21.11a26.69,26.69,0,0,1,.77-6.93c2.75-10.15,16.28-12,16.28-12q-20.07-12.9-20.07-35.5a52.08,52.08,0,0,1,3.42-18.3"/><path class="cls-6" d="M73.27,3319.22a21.56,21.56,0,0,1-16.41,6.87q-10.22,0-16.68-7t-6.45-17.75q0-10.74,6.45-17.75t16.68-7a21.58,21.58,0,0,1,16.41,6.85q6.45,6.86,6.46,17.88c0,7.35-2.16,13.33-6.46,17.88m19.64-17.74h0a21.11,21.11,0,0,1,21.1-21.11h90.64a21.11,21.11,0,0,1,0,42.22H114a21.11,21.11,0,0,1-21.1-21.11"/><path class="cls-6" d="M202.4,3172.63a17,17,0,0,1,21.76,12.77,84.34,84.34,0,0,1,1.59,16.72q0,21.28-11.95,33.63t-38.5,12.36H129.16a3,3,0,0,0-3,3v2.65a16.43,16.43,0,0,1-32.85,0v-2.65a3,3,0,0,0-3-3H77a20.5,20.5,0,1,1,0-41H90.3a3,3,0,0,0,3-3v-12.9a16.43,16.43,0,0,1,32.85,0v12.9a3,3,0,0,0,3,3H175.3q7.88,0,11.7-3.94c2.54-2.63,3.8-6.21,3.8-10.77,0-.85,0-1.7-.1-2.54a16.38,16.38,0,0,1,11.28-17.1Z"/><path class="cls-6" d="M108.34,2749h95.55c10.58,0,19.16,8.34,19.16,18.62v1.4a18.77,18.77,0,0,1-16,18.35q18.67,16.56,18.66,43.1,0,18.14-8.78,32.19a59.64,59.64,0,0,1-24.62,21.94q-15.82,7.89-36.1,7.89t-36.11-7.89a59.55,59.55,0,0,1-24.61-21.94q-8.79-14.05-8.8-32.19a60.82,60.82,0,0,1,4.74-24.18,52.53,52.53,0,0,1,13.66-18.92,18.52,18.52,0,0,1-15.69-18.09v-1.91a18.64,18.64,0,0,1,18.9-18.37m72.38,49.41q-9.33-8.67-24.47-8.67t-24.48,8.67q-9.33,8.67-9.33,22.34t9.46,22.2q9.48,8.53,24.35,8.54t24.34-8.54q9.47-8.53,9.46-22.2t-9.33-22.34"/><path class="cls-6" d="M55.47,3516.17h0A18.54,18.54,0,0,1,74,3497.63h133.2a18.54,18.54,0,1,1,0,37.08H74a18.54,18.54,0,0,1-18.54-18.54"/><path class="cls-7" d="M162.42,3723.82l-3.91,3.11a9,9,0,0,0,2.38,15.4l44.64,17.1a9,9,0,0,0,12.18-8.7l-1.76-48.2a9,9,0,0,0-14.43-6.78l-1.6,1.22a1.86,1.86,0,0,1-2.26,0c-5.22-3.86-28.36-19.36-60.21-16.85a43.44,43.44,0,0,0-17.78,5.46,223.13,223.13,0,0,0-29.9,20,1.46,1.46,0,0,0,1.38,2.53c12.9-4.4,38.49-8.19,71.15,13.24a1.49,1.49,0,0,1,.12,2.39"/><path class="cls-12" d="M136.68,3717.58c-6.53-2.95-34.6-13.78-58,5.29A24.69,24.69,0,0,0,71.46,3733c-4.52,11.45-11.74,38.49,6.18,70.17,0,.48,21.59,46.06,83.72,40.06.73.18,26.41-3,45.9-20.43A21,21,0,1,0,179,3791.65c-10.69,9.48-29.09,18.56-53.65,3.59,0,0-27.82-17-14.64-57.07h0c.1-.12,6-20.1,25.75-20a.32.32,0,0,0,.18-.61"/></g></g></svg>