<svg xmlns="http://www.w3.org/2000/svg" viewBox="0 0 855.58 328.38"><defs><style>.cls-1{fill:#fff;}.cls-2{fill:#19223d;}.cls-3{fill:#e74928;}.cls-4{fill:#0f0f0f;}.cls-5{fill:#18223c;}</style></defs><g id="Camada_2" data-name="Camada 2"><g id="Camada_1-2" data-name="Camada 1"><path class="cls-1" d="M852.38,291A52.57,52.57,0,1,1,821,223.61,52.57,52.57,0,0,1,852.38,291"/><path class="cls-2" d="M796,316.12A43.69,43.69,0,1,1,846.13,280,43.74,43.74,0,0,1,796,316.12m13.55-83.49a40.89,40.89,0,1,0,33.8,46.91,40.94,40.94,0,0,0-33.8-46.91"/><path class="cls-3" d="M817.86,276.91q-3.55-5.21-12.5-9.24a15,15,0,0,1-4.18-2.7,2.28,2.28,0,0,1-.63-2.46q1.13-3.11,7.73-.7a26.59,26.59,0,0,1,8.24,4.67,4.06,4.06,0,0,0,5.18-.08s3-3.11,3.26-4.94c.32-2.75-1.45-4.08-4.19-6a36.24,36.24,0,0,0-3.12-1.93l.29-.78a7.1,7.1,0,0,0-13.34-4.87l-.37,1a20,20,0,0,0-8,.46,12.54,12.54,0,0,0-8.9,8.19,12,12,0,0,0,1.36,11.21q3.51,5.37,11.5,8.78a15.71,15.71,0,0,1,4.83,2.93,2.66,2.66,0,0,1,.72,2.89c-.74,2-3,2.32-6.74.95a35.16,35.16,0,0,1-7.82-4c-2.5-1.69-4.39-4.21-6.47-4.32-1.84-.1-5.25,3.52-5.25,3.52a4,4,0,0,0-.48,5.75,35.73,35.73,0,0,0,9.38,7.18l-.29.79a7.1,7.1,0,1,0,13.34,4.87l.4-1.1a21,21,0,0,0,8.33-.36,12.67,12.67,0,0,0,9-8.34,11.86,11.86,0,0,0-1.3-11.38"/><path class="cls-1" d="M93.31,19.35a52.57,52.57,0,1,1-74-7.52,52.56,52.56,0,0,1,74,7.52"/><path class="cls-2" d="M86.05,80.64a43.69,43.69,0,1,1-5.41-61.56,43.74,43.74,0,0,1,5.41,61.56M21.24,26.3a40.88,40.88,0,1,0,57.59-5.06A40.93,40.93,0,0,0,21.24,26.3"/><path class="cls-3" d="M63.54,41.8q-6.3.41-14.34,6A14.94,14.94,0,0,1,44.75,50a2.27,2.27,0,0,1-2.44-.72c-1.39-1.7-.27-4,3.35-7a26.48,26.48,0,0,1,8.22-4.7,4,4,0,0,0,2.58-4.49s-1.1-4.21-2.57-5.33c-2.2-1.69-4.25-.84-7.29.54A35.83,35.83,0,0,0,43.35,30l-.53-.65a7.1,7.1,0,0,0-11,9l.69.85a20.08,20.08,0,0,0-3.7,7.13A12.49,12.49,0,0,0,31.3,58.16a12,12,0,0,0,10.33,4.57q6.4-.27,13.42-5.39a16,16,0,0,1,5-2.66,2.64,2.64,0,0,1,2.85.87q2,2.48-2.63,6.27a35.24,35.24,0,0,1-7.46,4.66c-2.73,1.28-5.87,1.62-7,3.35-1,1.53.34,6.31.34,6.31a4,4,0,0,0,4.69,3.36,35.61,35.61,0,0,0,11-4.4l.54.66a7.1,7.1,0,0,0,11-9l-.74-.91a20.92,20.92,0,0,0,3.94-7.35A12.64,12.64,0,0,0,74,46.5a11.84,11.84,0,0,0-10.44-4.7"/><path class="cls-4" d="M754.25,234.68l4.31,3.06-3.06-4.31a35.55,35.55,0,0,1,0-41.18l3.06-4.31L754.25,191a35.55,35.55,0,0,1-41.18,0l-4.31-3.06,3.06,4.31a35.55,35.55,0,0,1,0,41.18l-3.06,4.31,4.31-3.06a35.55,35.55,0,0,1,41.18,0"/><path class="cls-4" d="M853.55,326.94l2,1.44-1.44-2a16.71,16.71,0,0,1,0-19.34l1.44-2-2,1.43a16.66,16.66,0,0,1-19.33,0l-2-1.43,1.44,2a16.71,16.71,0,0,1,0,19.34l-1.44,2,2-1.44a16.69,16.69,0,0,1,19.33,0"/><polygon class="cls-5" points="51.05 265.91 79.42 261.01 51.05 256.11 46.25 227.17 41.45 256.11 13.07 261.01 41.45 265.91 46.25 294.85 51.05 265.91"/><polygon class="cls-5" points="123.47 229.93 171.03 221.72 123.47 213.52 115.43 165.01 107.38 213.52 59.83 221.72 107.38 229.93 115.43 278.44 123.47 229.93"/><path class="cls-5" d="M499.19,221.93V284c0,11.36-17.22,13.78-20.86,6.82-1.1-2.08-.82-11.54-.82-11.54a20.91,20.91,0,0,1-8.22,10,39.23,39.23,0,0,1-20.76,5.88q-15.22,0-24.24-10.3t-9-28.52V221.93a13.13,13.13,0,1,1,26.25,0v32.89c0,5.51,1.32,9.8,3.93,12.89a13.45,13.45,0,0,0,10.79,4.64,15.16,15.16,0,0,0,12.12-5.41q4.61-5.42,4.6-14v-31a13.13,13.13,0,1,1,26.25,0"/><path class="cls-5" d="M274.83,209.61a35.86,35.86,0,0,1,17.89,10.76q7.15,7.92,9.83,20c.26,1.18.49,2.49.7,3.94a6.37,6.37,0,0,1-4.93,7.1l-49.9,11.08a2.85,2.85,0,0,0-1.58,4.59,16.21,16.21,0,0,0,6.7,4.81q6.41,2.63,15.06.69a40.18,40.18,0,0,0,11.35-4.4,33.4,33.4,0,0,0,5.84-4.23,5.25,5.25,0,0,1,6.53-.46l8.25,5.66a5.24,5.24,0,0,1,1,7.81,50,50,0,0,1-10.41,8.76,59.17,59.17,0,0,1-19.24,7.87q-14,3.12-25.46.26a38,38,0,0,1-19.07-11.08q-7.67-8.24-10.52-21.14a44.77,44.77,0,0,1,.58-23.25,38.81,38.81,0,0,1,12-18.32q8.59-7.47,21.51-10.34,13.22-2.93,23.95-.1m-30.27,26.84a15,15,0,0,0-3.21,9.63,2,2,0,0,0,2.49,2l31-6.88a2.05,2.05,0,0,0,1.43-2.82,14.63,14.63,0,0,0-6.74-7.47c-3.67-1.92-8.13-2.31-13.35-1.15s-9,3.38-11.62,6.69"/><path class="cls-5" d="M571.34,211c3.78,1.44,6.91,3.68,7.92,7.49,1.26,4.8-3.9,16.45-8.94,16.5a18.42,18.42,0,0,1-6.68-1.34,19.67,19.67,0,0,0-6.36-1q-8.34,0-13.2,5.47t-4.85,16.07v27.6a13.13,13.13,0,1,1-26.25,0v-57.6c0-7.41,5.83-12.95,13.12-13.42a16.59,16.59,0,0,1,4.31.48c6.31,1.71,7.48,10.12,7.48,10.12q8-12.48,22.07-12.48A32.31,32.31,0,0,1,571.34,211"/><path class="cls-5" d="M315.67,200.39a14.43,14.43,0,0,1,.08-20.57,17.16,17.16,0,0,1,22.07,0,14.45,14.45,0,0,1,.08,20.57,15.56,15.56,0,0,1-11.11,4q-6.87,0-11.12-4m11,12.2h0a13.12,13.12,0,0,1,13.12,13.13v56.34a13.13,13.13,0,1,1-26.25,0V225.72a13.13,13.13,0,0,1,13.13-13.13"/><path class="cls-5" d="M406.81,280.67a10.56,10.56,0,0,1-7.95,13.53,52.71,52.71,0,0,1-10.39,1q-13.23,0-20.91-7.44t-7.68-23.93V235.14a1.86,1.86,0,0,0-1.87-1.87h-1.64a10.21,10.21,0,1,1,0-20.42H358a1.87,1.87,0,0,0,1.87-1.87v-8.26a12.75,12.75,0,1,1,25.49,0V211a1.87,1.87,0,0,0,1.87,1.87h8a10.21,10.21,0,0,1,0,20.42h-8a1.86,1.86,0,0,0-1.87,1.87v28.68c0,3.27.81,5.69,2.45,7.27a9.21,9.21,0,0,0,6.7,2.37c.52,0,1.05,0,1.57-.06a10.18,10.18,0,0,1,10.64,7Z"/><path class="cls-5" d="M670.2,222.19v59.4a11.75,11.75,0,0,1-11.58,11.92h-.86a11.68,11.68,0,0,1-11.41-9.93q-10.3,11.61-26.8,11.61a36.31,36.31,0,0,1-33.65-20.77,53.88,53.88,0,0,1,0-44.9,36.28,36.28,0,0,1,33.65-20.76,37.73,37.73,0,0,1,15,2.94,32.65,32.65,0,0,1,11.77,8.49,11.51,11.51,0,0,1,11.25-9.75h1.18a11.59,11.59,0,0,1,11.42,11.75m-30.72,45q5.4-5.81,5.4-15.22t-5.4-15.21A18.09,18.09,0,0,0,625.6,231a17.74,17.74,0,0,0-13.81,5.89q-5.31,5.88-5.31,15.13t5.31,15.14A17.74,17.74,0,0,0,625.6,273a18.08,18.08,0,0,0,13.88-5.8"/><path class="cls-5" d="M193.22,189.32h0a11.53,11.53,0,0,1,11.53,11.53v82.81a11.53,11.53,0,1,1-23.05,0V200.85a11.53,11.53,0,0,1,11.52-11.53"/><path class="cls-5" d="M472.92,54q17.79,0,29.18,12.24T513.48,98q0,19.52-11.38,31.74t-29.18,12.24q-17.28,0-28.07-11.81l-.06.38a11.67,11.67,0,0,1-11.5,9.72,13.42,13.42,0,0,1-13.42-13.42V33.86a13.44,13.44,0,1,1,26.87,0V63.74Q457.35,54,472.92,54m-20.79,59.38q5.55,6,14.46,6a19.24,19.24,0,0,0,14.54-5.9q5.65-5.91,5.65-15.49t-5.65-15.49a19.24,19.24,0,0,0-14.54-5.9q-8.91,0-14.46,6T446.57,98q0,9.42,5.56,15.4"/><path class="cls-5" d="M106.55,141.94q-21.4,0-34.06-11.9T59.83,98q0-19.84,12.75-32.08T106,53.64a47.47,47.47,0,0,1,21.37,4.77,11.24,11.24,0,0,1,3.35,17.66l-.31.34a10.68,10.68,0,0,1-12.53,2.26A24.4,24.4,0,0,0,107.4,76.4q-9.24,0-15.06,5.9T86.52,97.79q0,9.58,5.74,15.48t15.14,5.91a24.64,24.64,0,0,0,11.5-2.69,10.59,10.59,0,0,1,12.62,2l.34.36a11.16,11.16,0,0,1-2.57,17.44,46.47,46.47,0,0,1-22.74,5.64"/><path class="cls-5" d="M788.66,141.94H772.09a20.4,20.4,0,0,1-16.17-8l-20.08-26.06V128.4a13.54,13.54,0,0,1-27.08,0V34a13.54,13.54,0,0,1,27.08,0V88.65l17.66-24.1A20.4,20.4,0,0,1,770,56.2h13.85a3.4,3.4,0,0,1,2.71,5.46L760.16,96.33a.77.77,0,0,0,0,1l31.15,39.13a3.4,3.4,0,0,1-2.66,5.52"/><path class="cls-5" d="M233.81,67.36v60.69A12,12,0,0,1,222,140.22h-.89a11.92,11.92,0,0,1-11.65-10.13q-10.51,11.85-27.37,11.85a37.12,37.12,0,0,1-34.39-21.22,50.84,50.84,0,0,1-5-22.93,50.84,50.84,0,0,1,5-22.93,37.12,37.12,0,0,1,34.39-21.22,38.6,38.6,0,0,1,15.35,3,33.37,33.37,0,0,1,12,8.67,11.76,11.76,0,0,1,11.49-10h1.21a11.84,11.84,0,0,1,11.66,12m-31.37,46q5.51-5.93,5.51-15.55t-5.51-15.54a18.48,18.48,0,0,0-14.19-5.93,18.08,18.08,0,0,0-14.1,6q-5.43,6-5.43,15.46t5.43,15.46a18.08,18.08,0,0,0,14.1,6,18.51,18.51,0,0,0,14.19-5.92"/><path class="cls-5" d="M612.34,67.36v60.69a12,12,0,0,1-11.82,12.17h-.89A11.93,11.93,0,0,1,588,130.09q-10.51,11.85-27.37,11.85a37.11,37.11,0,0,1-34.38-21.22,50.71,50.71,0,0,1-5-22.93,50.71,50.71,0,0,1,5-22.93A37.11,37.11,0,0,1,560.6,53.64a38.69,38.69,0,0,1,15.36,3,33.34,33.34,0,0,1,12,8.67,11.77,11.77,0,0,1,11.49-10h1.22a11.84,11.84,0,0,1,11.66,12m-31.38,46q5.5-5.93,5.51-15.55T581,82.25a18.46,18.46,0,0,0-14.18-5.93,18.12,18.12,0,0,0-14.11,6q-5.42,6-5.42,15.46t5.42,15.46a18.12,18.12,0,0,0,14.11,6A18.48,18.48,0,0,0,581,113.34"/><path class="cls-5" d="M402.93,64.47Q393.75,54,378.24,54a40,40,0,0,0-21.14,6,21.14,21.14,0,0,0-3.73,3V33.8a13.36,13.36,0,0,0-26.72,0v94.47a13.37,13.37,0,1,0,26.73,0V96.86q0-8.72,4.68-14.2a15.49,15.49,0,0,1,12.35-5.48c4.66,0,8.31,1.57,11,4.7s4,7.48,4,13.07v33.32a13.37,13.37,0,1,0,26.74,0V93.37q0-18.44-9.21-28.9"/><path class="cls-3" d="M309.21,94.91Q299.51,88,281,86.59c-4.31-.46-7.37-1.15-9.18-2.09a4.31,4.31,0,0,1-2.71-4q0-6.24,13.28-6.24A50.16,50.16,0,0,1,300,77.23a7.67,7.67,0,0,0,9.16-3.51s3.42-7.5,2.61-10.89c-1.22-5.11-5.23-6.32-11.35-7.94-2.22-.58-4.49-1-6.79-1.4V51.91a13.44,13.44,0,0,0-26.87,0V54a38.26,38.26,0,0,0-14,6,23.76,23.76,0,0,0-10.5,20.34q0,11.79,9.7,19.05t26.14,8.15q7.33.51,10.5,2.07a5,5,0,0,1,3.14,4.68c0,4-3.78,6.06-11.37,6.06a67.08,67.08,0,0,1-16.51-2.09c-5.54-1.38-10.55-4.63-14.31-3.48-3.32,1-7.05,9.66-7.05,9.66A7.65,7.65,0,0,0,245.44,135a67.58,67.58,0,0,0,21.36,6.68v1.6a13.44,13.44,0,0,0,26.87,0V141a39.3,39.3,0,0,0,14.57-6,24,24,0,0,0,10.67-20.69q0-12.48-9.7-19.39"/><path class="cls-5" d="M671.5,77.67l-2.09,1.66a4.79,4.79,0,0,0,1.27,8.22l23.84,9.13A4.78,4.78,0,0,0,701,92l-.93-25.74a4.8,4.8,0,0,0-7.71-3.63l-.85.66a1,1,0,0,1-1.21,0,49.57,49.57,0,0,0-32.16-9,23.14,23.14,0,0,0-9.5,2.92,119.12,119.12,0,0,0-16,10.7.78.78,0,0,0,.74,1.35c6.88-2.35,20.55-4.37,38,7.07a.8.8,0,0,1,.07,1.28"/><path class="cls-3" d="M657.75,74.33c-3.49-1.57-18.47-7.35-31,2.83a13.12,13.12,0,0,0-3.86,5.4c-2.41,6.12-6.27,20.55,3.3,37.47,0,.26,11.53,24.6,44.71,21.4.39.09,14.1-1.59,24.51-10.92a11.22,11.22,0,1,0-15.07-16.62c-5.71,5.06-15.54,9.91-28.66,1.92,0,0-14.85-9.09-7.81-30.48h0c.05-.06,3.22-10.73,13.76-10.66a.17.17,0,0,0,.09-.33"/></g></g></svg>